# xmcd
#
# Track frame offsets:
#	150
#	12420
#	30407
#	44167
#	61105
#	77030
#	86110
#	97147
#
# Disc length: 1404 seconds
#
# Revision: 0
# Processed by: cddbd v1.5.2PL0 Copyright (c) Steve Scherf et al.
# Submitted via: EasyCDDAExtractor 10.0.6.1
#
DISCID=62057a08
DTITLE=Various Artist - Mark Five Recordscd-7889
DYEAR=1991
DGENRE=Gospel
TTITLE0=Perfect Heart - He Will Come Back
TTITLE1=Anchormen - I've Been Touched
TTITLE2=Destiny - Man Stands The Tallest
TTITLE3=The martins - Marks Of The Trade
TTITLE4=The Buxtons - The Blood of Calvary
TTITLE5=Victory Side Quartet - Song Of Victory
TTITLE6=The Bradys - The Son Will Rise At Midnight
TTITLE7=Jeff Stice - He'll Pilot Me
EXTD=
EXTT0=
EXTT1=
EXTT2=
EXTT3=
EXTT4=
EXTT5=
EXTT6=
EXTT7=
PLAYORDER=
